<?xml version="1.0" standalone="no"?><!DOCTYPE svg PUBLIC "-//W3C//DTD SVG 1.1//EN" "http://www.w3.org/Graphics/SVG/1.1/DTD/svg11.dtd"><svg t="1721056109157" class="icon" viewBox="0 0 1024 1024" version="1.1" xmlns="http://www.w3.org/2000/svg" p-id="34113" xmlns:xlink="http://www.w3.org/1999/xlink" width="50" height="50"><path d="M73.01650527 347.34966417c93.86320114-18.06544025 187.70964401-36.39901318 281.60636172-54.34714536 6.50221783 37.43802738 14.61323182 74.57440548 21.36682404 111.96215797-97.91870813 18.55143076-195.68659164 38.04132594-293.62205807 56.49220693-7.65854006-36.95203687-13.95965838-74.20572303-21.98688091-111.05721016 4.05550698-1.54176298 8.34563009-2.36291938 12.63575322-3.05000938zM677.37083893 292.83493585c97.03051859 18.92011322 194.07779548 37.78995155 291.20886384 56.25759083-6.82062539 37.40451078-14.27806596 74.70847183-21.48413207 112.02919116-96.92996883-18.50115588-193.7761462-37.55533545-290.68935676-56.07324959-0.18434122-0.21785781-0.55302368-0.67033173-0.73736491-0.90494785 7.52447372-37.03582835 14.46240717-74.20572303 21.7019899-111.30858455zM511.69835072 584.68061483c0.5362654-0.0167583 1.60879617-0.08379147 2.14506156-0.10054976 14.11048301 21.31654916 25.64018885 44.69436841 43.48777128 63.29607405 9.68629356 9.73656845 22.221497 19.00390467 36.70066247 17.96489049 14.4121323-1.22335541 26.71271963-10.13876748 37.1363781-19.50665349 7.89315617-7.67529836 15.60197113-15.65224602 21.56792356-24.96985712 16.02092845 10.45717506 32.93004646 19.62396155 48.28064319 31.08663421-17.31131706 24.40007515-38.64462449 47.10756266-65.94388439 60.26282295-22.92534531 11.31184801-50.47597963 13.75855885-74.59116379 4.72583871-18.45088099-6.45194294-33.95230237-19.07093785-47.241629-33.11438769-6.87090027 5.34589559-12.36762051 12.28382903-19.62396151 17.22752559-19.28879566 15.25004697-44.25865278 23.66271023-68.91010233 20.94786672-30.71795175-2.93270133-57.46418795-21.33330745-78.34502148-43.01853908-7.5915069-9.03272012-16.07120335-17.54593314-21.66847332-28.03662481 16.32257773-9.51871063 31.90779056-20.26077667 48.09630194-29.98058683 12.38437882 16.9593929 27.29925989 33.58361991 47.12432094 41.71139218 11.71404705 5.09452119 25.53963908 2.7483601 35.74543977-4.62528897 21.534407-14.78081473 33.49982844-38.77869086 47.44272852-60.04496512 2.93270133-4.5582558 5.7983695-9.16678649 8.59700449-13.82559203z" p-id="34114"></path></svg>