<?xml version="1.0" standalone="no"?><!DOCTYPE svg PUBLIC "-//W3C//DTD SVG 1.1//EN" "http://www.w3.org/Graphics/SVG/1.1/DTD/svg11.dtd"><svg t="1721056184415" class="icon" viewBox="0 0 1347 1024" version="1.1" xmlns="http://www.w3.org/2000/svg" p-id="36620" xmlns:xlink="http://www.w3.org/1999/xlink" width="65.771484375" height="50"><path d="M716.020535 12.662411c98.874569 0 179.024935 60.456276 179.024935 134.97591 0 29.904842-12.877941 57.465792-34.646511 79.80013a4.876375 4.876375 0 0 0-1.077652 5.361318 169.622422 169.622422 0 0 0 22.495985 38.526059c2.155304 2.801895 2.667189 6.412029 1.400948 9.618044a10.884285 10.884285 0 0 1-7.759095 6.519794 69.104433 69.104433 0 0 1-15.652895 1.751185c-9.106159 0-20.52927-1.751184-32.006264-8.109332a60.079098 60.079098 0 0 1-17.242431-14.278888 5.846262 5.846262 0 0 0-6.735325-1.562596 224.798203 224.798203 0 0 1-87.747813 17.296315c-98.874569 0-179.024935-60.429335-179.024935-134.975911 0-74.492693 80.096484-134.895087 178.971053-134.895087z m-112.452985 214.291096c14.386654 10.884285 31.198025 19.397736 50.056935 25.405646a205.023289 205.023289 0 0 0 62.39605 9.483337 205.023289 205.023289 0 0 0 62.422991-9.483337c7.05862-2.236128 13.793945-4.849434 20.286798-7.786036l0.188589-0.107765a22.17269 22.17269 0 0 1 27.803421 7.759094 38.526058 38.526058 0 0 0 12.473822 11.099816c4.580021 2.532482 9.186983 3.93343 13.47065 4.580021a194.031239 194.031239 0 0 1-12.339115-23.115635 178.189755 178.189755 0 0 1-3.367663-8.432627 19.397736 19.397736 0 0 1 4.849434-20.798683l0.134707-0.080824c7.786036-7.651329 14.225006-15.976191 19.182205-24.839878a87.208987 87.208987 0 0 0 11.530876-42.998315c0-14.844656-3.879547-29.285193-11.530876-42.944431a118.38007 118.38007 0 0 0-32.598972-36.370754 166.551114 166.551114 0 0 0-50.110818-25.405646 205.023289 205.023289 0 0 0-62.396049-9.456396 205.023289 205.023289 0 0 0-62.39605 9.456396 166.955233 166.955233 0 0 0-50.056935 25.405646c-14.063358 10.614872-25.055409 22.846222-32.625913 36.370754a86.993456 86.993456 0 0 0-11.530877 42.944431c0 14.871597 3.879547 29.285193 11.530877 42.944432 7.570505 13.524532 18.562555 25.755882 32.598972 36.370754z" fill="#000000" p-id="36621"></path><path d="M802.744578 145.051957a17.053843 17.053843 0 0 1-1.508713 6.950855 18.158436 18.158436 0 0 1-4.229784 5.900145 19.747973 19.747973 0 0 1-6.358147 3.933429 20.906448 20.906448 0 0 1-21.337509-3.933429 18.131495 18.131495 0 0 1-4.229784-5.927086 17.053843 17.053843 0 0 1 4.229784-19.774914 20.879507 20.879507 0 0 1 27.695656 0 18.158436 18.158436 0 0 1 4.229784 5.900144c0.996828 2.182245 1.508713 4.580021 1.508713 6.950856zM735.606859 145.051957a17.511845 17.511845 0 0 1-5.738496 12.851 20.367622 20.367622 0 0 1-13.847828 5.307436 20.367622 20.367622 0 0 1-13.847828-5.307436 17.511845 17.511845 0 0 1-5.711556-12.851 17.511845 17.511845 0 0 1 5.738497-12.851 20.367622 20.367622 0 0 1 13.820887-5.334377c5.199671 0 10.183811 1.912832 13.847828 5.334377a17.511845 17.511845 0 0 1 5.738496 12.851zM668.496082 145.051957a17.511845 17.511845 0 0 1-5.738497 12.851 20.367622 20.367622 0 0 1-13.847827 5.307436 20.367622 20.367622 0 0 1-13.847828-5.307436 17.511845 17.511845 0 0 1-5.738497-12.851 17.511845 17.511845 0 0 1 5.738497-12.851 20.367622 20.367622 0 0 1 13.847828-5.334377c5.199671 0 10.15687 1.912832 13.847827 5.334377a17.511845 17.511845 0 0 1 5.711556 12.851z" fill="#000000" p-id="36622"></path><path d="M1334.215594 259.121419c28.908014-129.210473 0-246.997834 0-246.997834-26.240826-47.147274-85.781098 58.46262-85.781098 58.46262l-80.554485-1.589537C1111.842108 2.343893 1094.330263 0.754356 1094.330263 0.754356c-43.779612-1.643419-12.285233 230.725289-12.285233 230.72529-14.009476 58.516503-113.826991 71.502209-113.82699 71.502209-422.035457 69.85879-355.490447 567.114355-355.490448 567.114355-115.578175 138.101101-325.989724 20.340681-425.564767-14.656067-112.668515-39.576769-152.757168-14.92548-168.113709-1.616478-58.139324 50.514937 32.841444 79.746247 59.540272 84.514857 65.548182 11.692524 116.063118 21.822453 152.37999 35.724163 129.587651 49.706698 232.880593 40.654421 232.880593 40.654421 119.080544 3.232956 176.896573-37.367582 176.896573-37.367583 12.285233 27.614832 25.567293 31.30579 38.526058 32.491208 60.106039 5.522966 241.663457 0 241.663457 0 82.30567 38.98406 112.075806-16.245604 112.075806-16.245604l129.614592 1.616478c7.004738 13.012648 26.267767 19.505501 26.267767 19.505501 85.808039 12.985706 98.06633 0 98.066331 0 49.060106-26.025295-3.502369-51.996708-3.502369-51.996708-42.028427-9.779692-36.774874-22.765398-36.774874-22.765398s2.828836-43.914318-4.391432-122.663737c-4.98414-54.960251-18.266201-115.658999 6.169557-138.936282 30.632258-29.23131 60.564041-101.218462 71.798564-138.128043 45.126677-148.796797-1.427889-212.243558 13.955593-281.105519z m-269.035817 666.204455c21.014214-14.629126 33.272505-77.995062 33.272505-77.995062 21.014214 9.75275 36.801815 77.995062 36.801815 77.995062-43.806553 9.75275-70.047379 0-70.047379 0z" fill="#333333" p-id="36623"></path></svg>